<?xml version="1.0" standalone="no"?>
<!DOCTYPE svg PUBLIC "-//W3C//DTD SVG 20010904//EN"
 "http://www.w3.org/TR/2001/REC-SVG-20010904/DTD/svg10.dtd">
<svg version="1.0" xmlns="http://www.w3.org/2000/svg"
 width="948.000000pt" height="131.000000pt" viewBox="0 0 948.000000 131.000000"
 preserveAspectRatio="xMidYMid meet">

<g transform="translate(0.000000,131.000000) scale(0.100000,-0.100000)"
fill="#000000" stroke="none">
<path d="M34 1223 c13 -53 75 -132 133 -170 l56 -38 213 -3 214 -3 2 -467 3
-467 115 0 115 0 3 468 2 467 198 0 c171 0 202 3 238 19 76 35 156 124 179
199 l6 22 -741 0 -742 0 6 -27z"/>
<path d="M2066 1228 c23 -76 97 -161 169 -194 l50 -24 456 0 455 0 52 26 c29
14 67 44 86 66 33 38 76 116 76 138 0 7 -227 10 -676 10 l-675 0 7 -22z"/>
<path d="M4070 900 l0 -350 520 0 520 0 0 -120 0 -120 -417 0 -418 0 -62 -29
c-34 -16 -83 -49 -109 -73 -48 -43 -104 -114 -104 -130 0 -4 302 -8 670 -8
l670 0 0 355 0 355 -520 0 -520 0 0 33 c0 17 -3 69 -7 115 l-6 82 409 0 409 0
52 25 c29 13 75 45 102 70 49 46 95 120 85 137 -3 4 -291 8 -640 8 l-634 0 0
-350z"/>
<path d="M5985 1238 c-3 -7 -4 -272 -3 -588 l3 -575 523 -3 c499 -2 524 -1
560 17 51 26 116 93 141 145 41 83 84 76 -484 76 l-505 0 -2 468 -3 467 -113
3 c-84 2 -114 -1 -117 -10z"/>
<path d="M7690 1233 c0 -29 56 -117 96 -153 82 -71 68 -70 575 -70 l455 0 52
26 c29 14 67 44 86 66 33 38 76 116 76 138 0 7 -225 10 -670 10 -631 0 -670
-1 -670 -17z"/>
<path d="M2066 768 c24 -78 97 -163 169 -198 39 -19 63 -20 506 -20 l464 0 51
29 c28 16 65 46 84 67 32 37 69 107 70 132 0 9 -142 12 -676 12 l-675 0 7 -22z"/>
<path d="M7720 425 l0 -355 115 0 115 0 0 235 0 235 410 0 410 0 0 -235 0
-235 115 0 115 0 0 355 0 355 -640 0 -640 0 0 -355z"/>
<path d="M2066 288 c21 -70 83 -145 153 -186 l46 -27 458 -3 459 -3 51 24 c80
37 146 113 171 194 l7 23 -676 0 -676 0 7 -22z"/>
</g>
</svg>
